<svg width="1680" height="3150" viewBox="0 0 1680 3150" fill="none" xmlns="http://www.w3.org/2000/svg">
<rect y="2100" width="1680" height="1050" fill="#FFFCF4"/>
<rect y="1050" width="1680" height="1050" fill="#FFFCF4"/>
<path d="M932.763 2457.54C972.428 2283.74 1407.37 2354.36 1527.27 2100H1680V3150H722.133C630.039 2778.67 1048.11 2817.29 1173.03 2796.32C1297.95 2775.35 1359.95 2644.59 1324.39 2613.69C1241.34 2541.53 1173.03 2631.96 1080.02 2668.86C996.591 2701.97 897.144 2613.62 932.763 2457.54Z" fill="#FDEFCA"/>
<path d="M78.2041 2947.68C88.277 2894.04 150.729 2891.64 207.641 2916.66C241.889 2947.68 207.641 2975.69 158.284 3000.71C108.926 3025.72 65.6129 3014.72 78.2041 2947.68Z" fill="#FDEFCA"/>
<path d="M1041.18 2178.72C1084.49 2189.73 1129.82 2194.73 1155 2189.73C1143.92 2198.74 1114.2 2213.74 1096.07 2219.75C1045.05 2236.64 1013.82 2222.36 1006.93 2213.74C993.33 2196.73 1006.61 2169.94 1041.18 2178.72Z" fill="#FDEFCA"/>
<path d="M494.383 1385.47C315.593 1475.96 91.5023 1321.65 0 1232.63V1050H1680V2100H1522.88L1526.49 2091.17C1590.6 1354.02 1296.15 1274.21 1170.72 1227.12C951.744 1144.9 717.872 1272.36 494.383 1385.47Z" fill="#FDEFCA"/>
<path d="M1219.03 1396.51C1194.47 1390.33 1189.53 1320.36 1190.13 1286.15C1200.52 1275.12 1231.67 1297.19 1253.34 1334.16C1275.01 1371.12 1249.73 1404.23 1219.03 1396.51Z" fill="#FDEFCA"/>
<path d="M1315.65 1388.78C1308.42 1403.68 1299.39 1431.71 1321.06 1424.65C1348.15 1415.82 1340.48 1381.06 1315.65 1388.78Z" fill="#FDEFCA"/>
<rect width="1680" height="1050" fill="#FFFCF4"/>
<path d="M1356.66 256.974C1031.52 291.237 801.335 172.974 764.253 0H1680V1050H0V1042.82C44.7699 889.184 139.284 799.105 370.821 906.868C629.529 1027.28 1216.02 888.632 1399.62 706.816C1532.47 575.26 1639.75 227.142 1356.66 256.974Z" fill="#FDEFCA"/>
</svg>
