<svg width="1920" height="1080" viewBox="0 0 1920 1080" fill="none" xmlns="http://www.w3.org/2000/svg">
<rect width="1920" height="1080" fill="#FFFCF4"/>
<path d="M1327.85 378.19C1180.21 378.19 1340.35 126.063 1438.88 0H1920V1080H57.0193V1076.19C54.0133 905.996 402.476 951.192 608.95 1002.17C592.944 993.609 580.368 978.598 584.155 953.725C592.658 897.885 613.663 828.719 848.724 802.068C1083.78 775.417 1438.88 458.143 1468.38 418.167C1497.89 378.19 1493.39 316.639 1451.38 316.639C1409.37 316.639 1394.86 378.19 1327.85 378.19Z" fill="#FDEFCA"/>
<path d="M402.608 827.45C428.473 816.316 481.629 819.201 513.637 902.961C487.13 892.174 453.43 891.152 418.613 902.961C368.1 920.094 351.095 849.625 402.608 827.45Z" fill="#FDEFCA"/>
</svg>
