<svg width="1680" height="1050" viewBox="0 0 1680 1050" fill="none" xmlns="http://www.w3.org/2000/svg">
<rect width="1680" height="1050" fill="#FFFCF4"/>
<path d="M932.763 357.541C972.428 183.736 1407.37 254.362 1527.27 0H1680V1050H722.133C630.039 678.665 1048.11 717.289 1173.03 696.322C1297.95 675.355 1359.95 544.587 1324.39 513.689C1241.34 441.53 1173.03 531.96 1080.02 568.865C996.591 601.971 897.144 513.622 932.763 357.541Z" fill="#FDEFCA"/>
<path d="M78.2041 847.676C88.277 794.045 150.729 791.643 207.641 816.658C241.889 847.676 207.641 875.692 158.284 900.707C108.926 925.722 65.6129 914.716 78.2041 847.676Z" fill="#FDEFCA"/>
<path d="M1041.18 78.7236C1084.49 89.7301 1129.82 94.7331 1155 89.7301C1143.92 98.7356 1114.2 113.744 1096.07 119.748C1045.05 136.641 1013.82 122.364 1006.93 113.744C993.33 96.7342 1006.61 69.9405 1041.18 78.7236Z" fill="#FDEFCA"/>
</svg>
