<svg width="1680" height="1050" viewBox="0 0 1680 1050" fill="none" xmlns="http://www.w3.org/2000/svg">
<rect width="1680" height="1050" fill="#FFFCF4"/>
<path d="M494.383 335.47C315.593 425.959 91.5023 271.65 0 182.633V0H1680V1050H1522.88L1526.49 1041.17C1590.6 304.02 1296.15 224.21 1170.72 177.115C951.744 94.9028 717.872 222.359 494.383 335.47Z" fill="#FDEFCA"/>
<path d="M1219.03 346.506C1194.47 340.326 1189.53 270.363 1190.13 236.153C1200.52 225.118 1231.67 247.189 1253.34 284.157C1275.01 321.125 1249.73 354.23 1219.03 346.506Z" fill="#FDEFCA"/>
<path d="M1315.65 338.781C1308.42 353.678 1299.39 381.708 1321.06 374.645C1348.15 365.817 1340.48 331.056 1315.65 338.781Z" fill="#FDEFCA"/>
</svg>
