<svg width="1684" height="3150" viewBox="0 0 1684 3150" fill="none" xmlns="http://www.w3.org/2000/svg">
<path d="M1680 1050H0V2100H1680V1050Z" fill="#FFFCF4"/>
<path d="M1680 2100H0V3150H1680V2100Z" fill="#FFFCF4"/>
<path d="M1680 0H0V1050H1680V0Z" fill="#FFFCF4"/>
<path d="M1356.66 259.421C1031.52 294.011 801.335 174.621 764.253 0H1680V1060H0V1052.75C44.7699 897.652 139.284 806.716 370.821 915.505C629.529 1037.06 1216.02 897.095 1399.62 713.548C1532.47 580.739 1639.75 229.305 1356.66 259.421Z" fill="#FDEFCA"/>
<path d="M463.244 2964.78C454.838 2908.29 491.097 2843.17 510.277 2817.67C536.295 2790.21 558.811 2807.86 560.312 2845.13C561.813 2882.4 553.307 2983.74 535.294 3011.2C517.282 3038.66 473.751 3035.39 463.244 2964.78Z" fill="#FDEFCA"/>
<path fill-rule="evenodd" clip-rule="evenodd" d="M1684 1698.07C1609.41 1836.15 1370.11 1831.89 1153.35 1828.03C989.742 1825.11 838.971 1822.43 781.57 1881.36C712.341 1952.44 749.981 1991.13 792.478 2034.81C832.462 2075.92 876.746 2121.44 840.362 2202.51C770.855 2357.39 825.649 2548.06 941.323 2518.12C1056.26 2488.38 1111.79 2527.89 1044.32 2577.34C1036.89 2582.79 1011.64 2583.97 976.575 2585.62C887.701 2589.78 735.757 2596.9 650.921 2683.87C643.332 2670.71 630.689 2661.95 616.621 2679.51C608.598 2694.84 597.469 2726.48 614.813 2734.14C572.808 2816.49 575.823 2945.85 670.907 3150H1684V1698.07Z" fill="#FDEFCA"/>
<path fill-rule="evenodd" clip-rule="evenodd" d="M1684 1287.6L1668.52 1057H0V1366.65C2.38641 1368.17 4.85205 1369.74 7.39294 1371.36C67.1778 1409.52 168.625 1474.26 260.046 1437.18C301.544 1420.35 327.106 1380.39 355.792 1335.55C384.231 1291.09 415.741 1241.84 468.892 1205.57C582.522 1128.03 761.309 1135.28 943.174 1205.57C1042.96 1244.14 1074.75 1295.97 1100.35 1337.68C1125.21 1378.2 1144.21 1409.17 1214 1409.17C1297.81 1409.17 1362.29 1346.15 1414.34 1295.28C1417.52 1292.17 1420.65 1289.11 1423.74 1286.11C1511.19 1201.17 1613.88 1238.12 1684 1328.5V1287.6ZM1684 1805.47C1569.14 1938.33 1322.16 2020.81 864.993 1941.13L1684 2084.52V1805.47Z" fill="#FDEFCA"/>
</svg>
