<svg width="1920" height="1080" viewBox="0 0 1920 1080" fill="none" xmlns="http://www.w3.org/2000/svg">
<rect width="1920" height="1080" fill="#FFFCF4"/>
<path d="M606.353 345.055C408.406 438.129 160.306 279.411 59 187.851V0H1919V1080H1745.05L1749.05 1070.92C1820.03 312.706 1494.03 230.616 1355.15 182.176C1112.72 97.6143 853.786 228.713 606.353 345.055Z" fill="#FDEFCA"/>
<path d="M1408.64 356.406C1381.44 350.049 1375.98 278.087 1376.65 242.901C1388.14 231.55 1422.63 254.251 1446.63 292.275C1470.62 330.3 1442.63 364.351 1408.64 356.406Z" fill="#FDEFCA"/>
<path d="M1515.61 348.46C1507.61 363.784 1497.61 392.614 1521.61 385.349C1551.6 376.269 1543.1 340.515 1515.61 348.46Z" fill="#FDEFCA"/>
</svg>
