<svg width="1860" height="851" viewBox="0 0 1860 851" fill="none" xmlns="http://www.w3.org/2000/svg">
<path d="M1268 298C1120.4 298 1280.5 99.3333 1379 0H1860V851H-2.49997V848C-5.5052 713.892 342.868 749.504 549.288 789.677C533.286 782.927 520.714 771.099 524.5 751.5C533 707.5 554 653 789 632C1024 611 1379 361 1408.5 329.5C1438 298 1433.5 249.5 1391.5 249.5C1349.5 249.5 1335 298 1268 298Z" fill="#FDEFCA"/>
<path d="M343 652C368.858 643.227 422 645.5 454 711.5C427.5 703 393.809 702.195 359 711.5C308.5 725 291.5 669.473 343 652Z" fill="#FDEFCA"/>
</svg>
