<svg width="1680" height="3150" viewBox="0 0 1680 3150" fill="none" xmlns="http://www.w3.org/2000/svg">
<rect y="1050" width="1680" height="1050" fill="#FFFCF4"/>
<rect y="1050" width="1680" height="1050" fill="#FFFCF4"/>
<rect y="2100" width="1680" height="1050" fill="#FFFCF4"/>
<rect width="1680" height="1050" fill="#FFFCF4"/>
<path d="M1125.33 1384.32C762.366 1342.25 643.763 1103.14 602.866 1050H1680V2100H176L179.579 2088.93C219.658 1952.1 726.069 1925.83 920.843 1916.24C886.591 1916.24 659.042 1939.94 673.414 1848.15C703.576 1655.54 1125.33 1785.61 1306.81 1669.93C1412.05 1602.84 1342 1409.43 1125.33 1384.32Z" fill="#FDEFCA"/>
<path fill-rule="evenodd" clip-rule="evenodd" d="M728.738 0C745.822 76.5466 800.309 205.829 894.676 168.924C1058.9 104.698 1112.11 174.536 1121.32 230.655C1130.53 286.775 1129.51 392.155 986.255 466.357C961.046 479.415 925.728 491.778 885.854 505.736C699.14 571.095 412.508 671.431 595.895 1041.89L602.546 1050H1680V0H728.738Z" fill="#FDEFCA"/>
<path d="M983.95 2409.47C327.019 2537.86 139.295 2243.51 181.681 2100H1680V3150H984.461C870.58 2709.62 1392.5 2863.75 1490.54 2763.85C1592.67 2659.78 1805.11 2248.98 983.95 2409.47Z" fill="#FDEFCA"/>
<path d="M1297.51 2529.97C1282.8 2492.28 1313.51 2467.16 1330.7 2459.31C1363.89 2459.31 1364.91 2470.27 1378.19 2502.03C1391.47 2533.8 1384.83 2588.58 1364.91 2602.82C1345 2617.06 1315.89 2577.07 1297.51 2529.97Z" fill="#FDEFCA"/>
<path d="M1422.11 2659.78C1406.18 2657.59 1415.47 2626.37 1422.11 2611.03C1444.58 2597.89 1444.58 2611.03 1452.75 2624.18C1460.92 2637.32 1442.03 2662.52 1422.11 2659.78Z" fill="#FDEFCA"/>
<path d="M391.058 2522.85C337.13 2522.85 279.731 2447.99 257.772 2410.56C257.772 2349.22 357.353 2439.05 408.931 2471.91C460.509 2504.77 458.467 2522.85 391.058 2522.85Z" fill="#FDEFCA"/>
</svg>
